D:\school\WTK\thesis\model\3dpredictsim\Results\batch_windlass\Pog_s1_tmt_bCst_d05_k1000_WL10_ig24_pas_GRF.mot
nRows=15
nColumns=19

name D:\school\WTK\thesis\model\3dpredictsim\Results\batch_windlass\Pog_s1_tmt_bCst_d05_k1000_WL10_ig24_pas_GRF.mot
datacolumns 19
datarows 15
range 0.0000000000 0.1483926054
endheader
time 	ground_force_vx	ground_force_vy	ground_force_vz	ground_force_px	ground_force_py	ground_force_pz	1_ground_force_vx	1_ground_force_vy	1_ground_force_vz	1_ground_force_px	1_ground_force_py	1_ground_force_pz	ground_torque_x	ground_torque_y	ground_torque_z	1_ground_torque_x	1_ground_torque_y	1_ground_torque_z
        0.0000000000	     -132.8552928669	      117.1846885121	       35.6903634876	        0.1236044137	        0.0000000000	        0.0435934885	       85.4895624126	      388.3643009390	       -1.1539931660	       -0.3437544567	        0.0000000000	       -0.0354797056	        0.0000000000	        0.0000000000	        0.0000000000	        0.0000000000	        0.0000000000	        0.0000000000	
        0.0105994718	     -120.6452731671	      256.3657046056	       46.7016163622	        0.1392091874	        0.0000000000	        0.0447100574	       54.1246025317	      288.8393096217	      -10.6878598904	       -0.3363516273	        0.0000000000	       -0.0322641553	        0.0000000000	        0.0000000000	        0.0000000000	        0.0000000000	        0.0000000000	        0.0000000000	
        0.0211989436	      -70.9633241198	      507.3490507151	        8.8233811385	        0.1497529456	        0.0000000000	        0.0448042547	       23.8339772744	      189.0795076437	      -11.8915404535	       -0.3229916125	        0.0000000000	       -0.0252888884	        0.0000000000	        0.0000000000	        0.0000000000	        0.0000000000	        0.0000000000	        0.0000000000	
        0.0317984154	      -96.8832180594	      748.5367059899	       -9.8059493503	        0.1601769059	        0.0000000000	        0.0443151028	        4.8381577081	      144.9877895474	      -12.7571174203	       -0.3165051558	        0.0000000000	       -0.0212632591	        0.0000000000	        0.0000000000	        0.0000000000	        0.0000000000	        0.0000000000	        0.0000000000	
        0.0423978872	     -120.8322489282	      904.6265168941	      -13.6762335654	        0.1702230094	        0.0000000000	        0.0432483197	       -0.8578170998	      110.7629283875	      -13.3085790798	       -0.3162864959	        0.0000000000	       -0.0213628901	        0.0000000000	        0.0000000000	        0.0000000000	        0.0000000000	        0.0000000000	        0.0000000000	
        0.0529973591	     -124.9892534707	      926.2855440151	      -11.5256339725	        0.1755043533	        0.0000000000	        0.0425252484	       -8.9188897138	       68.6071072975	      -11.8935447357	       -0.3163750347	        0.0000000000	       -0.0214519162	        0.0000000000	        0.0000000000	        0.0000000000	        0.0000000000	        0.0000000000	        0.0000000000	
        0.0635968309	     -113.1248414587	      889.1151403184	       -9.5284783661	        0.1787442103	        0.0000000000	        0.0419907464	       -8.9517629010	       23.0903406305	       -5.2791029135	       -0.3165241392	        0.0000000000	       -0.0212601935	        0.0000000000	        0.0000000000	        0.0000000000	        0.0000000000	        0.0000000000	        0.0000000000	
        0.0741963027	      -99.7688084912	      841.3872991801	       -9.5310257992	        0.1816440167	        0.0000000000	        0.0415642469	        0.1434419416	       -0.1450313193	        0.0140261623	        0.0000000000	        0.0000000000	        0.0000000000	        0.0000000000	        0.0000000000	        0.0000000000	        0.0000000000	        0.0000000000	        0.0000000000	
        0.0847957745	      -86.2651362947	      796.3777827669	      -11.4102555500	        0.1843954687	        0.0000000000	        0.0412353823	        0.0002670732	       -0.0002214836	       -0.0000016162	        0.0000000000	        0.0000000000	        0.0000000000	        0.0000000000	        0.0000000000	        0.0000000000	        0.0000000000	        0.0000000000	        0.0000000000	
        0.0953952463	      -73.2763023656	      755.6414857678	      -12.5642760261	        0.1871821003	        0.0000000000	        0.0410267326	        0.0000571688	       -0.0000408545	       -0.0000021165	        0.0000000000	        0.0000000000	        0.0000000000	        0.0000000000	        0.0000000000	        0.0000000000	        0.0000000000	        0.0000000000	        0.0000000000	
        0.1059947181	      -61.2334553976	      718.8422047460	      -13.5285926327	        0.1901193982	        0.0000000000	        0.0409117063	        0.0002637983	       -0.0001684034	       -0.0000138140	        0.0000000000	        0.0000000000	        0.0000000000	        0.0000000000	        0.0000000000	        0.0000000000	        0.0000000000	        0.0000000000	        0.0000000000	
        0.1165941899	      -50.6266633330	      687.3634092452	      -15.4955516352	        0.1940370080	        0.0000000000	        0.0408181749	        0.0049324000	       -0.0028851018	       -0.0003084073	        0.0000000000	        0.0000000000	        0.0000000000	        0.0000000000	        0.0000000000	        0.0000000000	        0.0000000000	        0.0000000000	        0.0000000000	
        0.1271936617	      -42.8125541578	      661.7160535546	      -17.5053015144	        0.1990825587	        0.0000000000	        0.0407184900	       -0.0276450431	        0.0150841732	        0.0019742443	        0.0000000000	        0.0000000000	        0.0000000000	        0.0000000000	        0.0000000000	        0.0000000000	        0.0000000000	        0.0000000000	        0.0000000000	
        0.1377931335	      -37.1665041566	      641.2538582112	      -19.0234612059	        0.2046659826	        0.0000000000	        0.0406239509	       -0.0246802603	        0.0127150186	        0.0019634061	        0.0000000000	        0.0000000000	        0.0000000000	        0.0000000000	        0.0000000000	        0.0000000000	        0.0000000000	        0.0000000000	        0.0000000000	
        0.1483926054	      -32.4154500631	      625.1965716119	      -19.9956593287	        0.2105304525	        0.0000000000	        0.0405334721	       -0.0160876588	        0.0078895306	        0.0013942717	        0.0000000000	        0.0000000000	        0.0000000000	        0.0000000000	        0.0000000000	        0.0000000000	        0.0000000000	        0.0000000000	        0.0000000000	
